<svg width="22" height="16" viewBox="0 0 22 16" fill="none" xmlns="http://www.w3.org/2000/svg">
<path d="M21.0617 2.98086C20.9422 2.53564 20.7078 2.12962 20.382 1.80344C20.0563 1.47727 19.6505 1.24237 19.2055 1.12227C17.5672 0.681641 11 0.681641 11 0.681641C11 0.681641 4.43281 0.681641 2.79453 1.11992C2.34927 1.23964 1.94334 1.4744 1.61751 1.80064C1.29169 2.12688 1.05744 2.5331 0.938281 2.97852C0.5 4.61914 0.5 8.04102 0.5 8.04102C0.5 8.04102 0.5 11.4629 0.938281 13.1012C1.17969 14.0059 1.89219 14.7184 2.79453 14.9598C4.43281 15.4004 11 15.4004 11 15.4004C11 15.4004 17.5672 15.4004 19.2055 14.9598C20.1102 14.7184 20.8203 14.0059 21.0617 13.1012C21.5 11.4629 21.5 8.04102 21.5 8.04102C21.5 8.04102 21.5 4.61914 21.0617 2.98086ZM8.91406 11.1816V4.90039L14.3516 8.01758L8.91406 11.1816Z" fill="#8D8D8D"/>
</svg>
