<svg width="21" height="12" viewBox="0 0 21 12" fill="none" xmlns="http://www.w3.org/2000/svg">
<path d="M19.579 0.896027C19.719 0.431027 19.579 0.0900269 18.917 0.0900269H16.724C16.166 0.0900269 15.911 0.385027 15.771 0.709027C15.771 0.709027 14.656 3.42803 13.076 5.19103C12.566 5.70403 12.333 5.86603 12.055 5.86603C11.916 5.86603 11.714 5.70403 11.714 5.23903V0.896027C11.714 0.338027 11.553 0.0900269 11.088 0.0900269H7.642C7.294 0.0900269 7.084 0.348027 7.084 0.594027C7.084 1.12203 7.874 1.24403 7.955 2.73203V5.96003C7.955 6.66703 7.828 6.79603 7.548 6.79603C6.805 6.79603 4.997 4.06703 3.924 0.943027C3.715 0.336027 3.504 0.0910273 2.944 0.0910273H0.752C0.125 0.0910273 0 0.386027 0 0.710027C0 1.29203 0.743 4.17203 3.461 7.98103C5.273 10.582 7.824 11.992 10.148 11.992C11.541 11.992 11.713 11.679 11.713 11.139V9.17303C11.713 8.54703 11.846 8.42103 12.287 8.42103C12.611 8.42103 13.169 8.58503 14.47 9.83803C15.956 11.324 16.202 11.991 17.037 11.991H19.229C19.855 11.991 20.168 11.678 19.988 11.06C19.791 10.445 19.081 9.55003 18.139 8.49103C17.627 7.88703 16.862 7.23703 16.629 6.91203C16.304 6.49303 16.398 6.30803 16.629 5.93603C16.63 5.93703 19.301 2.17503 19.579 0.896027Z" fill="#8D8D8D"/>
</svg>
