<svg width="186" height="17" viewBox="0 0 186 17" fill="none" xmlns="http://www.w3.org/2000/svg">
<path d="M6.05113 2.844C5.34713 2.844 4.65046 2.94667 3.96113 3.152C3.2718 3.34267 2.59713 3.57733 1.93713 3.856L0.88113 1.172C1.65846 0.834666 2.4798 0.570666 3.34513 0.379999C4.21046 0.174666 5.13446 0.0719992 6.11713 0.0719992C7.2758 0.0719992 8.30246 0.255332 9.19713 0.621999C10.1065 0.973999 10.8691 1.502 11.4851 2.206C12.1158 2.89533 12.5925 3.746 12.9151 4.758C13.2525 5.75533 13.4211 6.892 13.4211 8.168C13.4211 9.78133 13.1498 11.1967 12.6071 12.414C12.0645 13.6167 11.2285 14.5553 10.0991 15.23C8.98446 15.89 7.55446 16.22 5.80913 16.22C4.91446 16.22 4.10046 16.154 3.36713 16.022C2.64846 15.89 1.91513 15.6847 1.16713 15.406V12.612C2.00313 12.876 2.77313 13.0813 3.47713 13.228C4.1958 13.3747 4.90713 13.448 5.61113 13.448C6.2858 13.448 6.8798 13.3673 7.39313 13.206C7.92113 13.03 8.36113 12.7807 8.71313 12.458C9.0798 12.1207 9.3658 11.7027 9.57113 11.204C9.77646 10.6907 9.8938 10.104 9.92313 9.444H3.10313V6.716H9.90113C9.88646 6.1 9.7838 5.55733 9.59313 5.088C9.40246 4.604 9.13846 4.20067 8.80113 3.878C8.4638 3.54067 8.06046 3.284 7.59113 3.108C7.13646 2.932 6.62313 2.844 6.05113 2.844ZM30.9893 16H27.6673V3.064H23.8173C23.7293 3.73867 23.634 4.472 23.5313 5.264C23.4433 6.056 23.3407 6.86267 23.2233 7.684C23.1207 8.49067 23.0107 9.26067 22.8933 9.994C22.776 10.7127 22.6587 11.3507 22.5413 11.908C22.3507 12.8173 22.094 13.5947 21.7713 14.24C21.4633 14.8853 21.0307 15.3767 20.4733 15.714C19.9307 16.0513 19.2193 16.22 18.3393 16.22C18.046 16.22 17.7673 16.198 17.5033 16.154C17.2393 16.11 16.99 16.0513 16.7553 15.978V13.25C16.946 13.3087 17.1293 13.36 17.3053 13.404C17.496 13.448 17.7013 13.47 17.9213 13.47C18.2147 13.47 18.4567 13.3747 18.6473 13.184C18.838 12.9933 19.0067 12.6707 19.1533 12.216C19.3 11.7467 19.4467 11.1013 19.5933 10.28C19.6667 9.928 19.7547 9.42933 19.8573 8.784C19.96 8.124 20.0773 7.354 20.2093 6.474C20.356 5.57933 20.5027 4.61133 20.6493 3.57C20.796 2.514 20.9353 1.42133 21.0673 0.291999H30.9893V16ZM46.3039 16H37.2619V0.291999H46.3039V3.02H40.5839V6.474H45.9079V9.202H40.5839V13.25H46.3039V16ZM64.6865 16H60.9025L55.2045 8.036V16H51.8825V0.291999H55.2045V7.904L60.8365 0.291999H64.3785L58.6585 7.838L64.6865 16ZM75.0237 16H71.7017V3.064H67.4337V0.291999H79.2917V3.064H75.0237V16ZM89.0399 0.291999C91.0639 0.291999 92.5379 0.731999 93.4619 1.612C94.4006 2.47733 94.8699 3.67267 94.8699 5.198C94.8699 5.88733 94.7673 6.54733 94.5619 7.178C94.3566 7.794 94.0119 8.35133 93.5279 8.85C93.0586 9.334 92.4353 9.71533 91.6579 9.994C90.8806 10.2727 89.9199 10.412 88.7759 10.412H87.3459V16H84.0239V0.291999H89.0399ZM88.8639 3.02H87.3459V7.684H88.4459C89.0766 7.684 89.6193 7.60333 90.0739 7.442C90.5286 7.28067 90.8806 7.024 91.1299 6.672C91.3793 6.32 91.5039 5.86533 91.5039 5.308C91.5039 4.53067 91.2913 3.95867 90.8659 3.592C90.4406 3.21067 89.7733 3.02 88.8639 3.02ZM114.404 8.124C114.404 9.34133 114.25 10.4487 113.942 11.446C113.649 12.4287 113.194 13.2793 112.578 13.998C111.977 14.7167 111.2 15.2667 110.246 15.648C109.308 16.0293 108.2 16.22 106.924 16.22C105.648 16.22 104.534 16.0293 103.58 15.648C102.642 15.252 101.864 14.702 101.248 13.998C100.647 13.2793 100.192 12.4213 99.8844 11.424C99.5911 10.4267 99.4444 9.31933 99.4444 8.102C99.4444 6.474 99.7084 5.05867 100.236 3.856C100.779 2.65333 101.6 1.722 102.7 1.062C103.815 0.387333 105.23 0.0499995 106.946 0.0499995C108.648 0.0499995 110.048 0.387333 111.148 1.062C112.248 1.722 113.062 2.66067 113.59 3.878C114.133 5.08067 114.404 6.496 114.404 8.124ZM102.942 8.124C102.942 9.224 103.082 10.17 103.36 10.962C103.639 11.754 104.072 12.3627 104.658 12.788C105.245 13.2133 106 13.426 106.924 13.426C107.878 13.426 108.64 13.2133 109.212 12.788C109.799 12.3627 110.224 11.754 110.488 10.962C110.767 10.17 110.906 9.224 110.906 8.124C110.906 6.46667 110.598 5.16867 109.982 4.23C109.366 3.29133 108.354 2.822 106.946 2.822C106.008 2.822 105.245 3.03467 104.658 3.46C104.072 3.88533 103.639 4.494 103.36 5.286C103.082 6.078 102.942 7.024 102.942 8.124ZM126.634 2.844C126.003 2.844 125.439 2.96867 124.94 3.218C124.456 3.46733 124.045 3.82667 123.708 4.296C123.371 4.75067 123.114 5.308 122.938 5.968C122.777 6.628 122.696 7.36867 122.696 8.19C122.696 9.30467 122.828 10.258 123.092 11.05C123.371 11.8273 123.803 12.4213 124.39 12.832C124.977 13.2427 125.725 13.448 126.634 13.448C127.279 13.448 127.917 13.3747 128.548 13.228C129.193 13.0813 129.89 12.876 130.638 12.612V15.406C129.949 15.6847 129.267 15.89 128.592 16.022C127.917 16.154 127.162 16.22 126.326 16.22C124.713 16.22 123.378 15.89 122.322 15.23C121.281 14.5553 120.511 13.6167 120.012 12.414C119.513 11.1967 119.264 9.78133 119.264 8.168C119.264 6.98 119.425 5.89467 119.748 4.912C120.071 3.91467 120.54 3.05667 121.156 2.338C121.787 1.61933 122.557 1.062 123.466 0.665999C124.39 0.269999 125.446 0.0719992 126.634 0.0719992C127.411 0.0719992 128.189 0.174666 128.966 0.379999C129.758 0.570666 130.513 0.834666 131.232 1.172L130.154 3.878C129.567 3.59933 128.973 3.35733 128.372 3.152C127.785 2.94667 127.206 2.844 126.634 2.844ZM136.286 0.291999H139.278V7.882C139.278 8.24867 139.271 8.65933 139.256 9.114C139.241 9.56867 139.227 10.016 139.212 10.456C139.197 10.8813 139.183 11.2553 139.168 11.578C139.153 11.886 139.139 12.0987 139.124 12.216H139.19L146.45 0.291999H150.432V16H147.462V8.454C147.462 8.058 147.469 7.62533 147.484 7.156C147.499 6.672 147.513 6.21 147.528 5.77C147.557 5.33 147.579 4.94867 147.594 4.626C147.623 4.28867 147.645 4.06867 147.66 3.966H147.572L140.29 16H136.286V0.291999ZM162.757 16H159.435V3.064H155.167V0.291999H167.025V3.064H162.757V16ZM171.758 0.291999H174.75V7.882C174.75 8.24867 174.742 8.65933 174.728 9.114C174.713 9.56867 174.698 10.016 174.684 10.456C174.669 10.8813 174.654 11.2553 174.64 11.578C174.625 11.886 174.61 12.0987 174.596 12.216H174.662L181.922 0.291999H185.904V16H182.934V8.454C182.934 8.058 182.941 7.62533 182.956 7.156C182.97 6.672 182.985 6.21 183 5.77C183.029 5.33 183.051 4.94867 183.066 4.626C183.095 4.28867 183.117 4.06867 183.132 3.966H183.044L175.762 16H171.758V0.291999Z" fill="#E11C4B"/>
</svg>
